<?xml version="1.0" standalone="no"?>
<!DOCTYPE svg PUBLIC "-//W3C//DTD SVG 20010904//EN"
 "http://www.w3.org/TR/2001/REC-SVG-20010904/DTD/svg10.dtd">
<svg version="1.0" xmlns="http://www.w3.org/2000/svg"
 width="512.000000pt" height="512.000000pt" viewBox="0 0 512.000000 512.000000"
 preserveAspectRatio="xMidYMid meet">

<g transform="translate(0.000000,512.000000) scale(0.100000,-0.100000)"
fill="#000000" stroke="none">
<path d="M2410 5100 c-18 -18 -20 -33 -20 -155 0 -122 -2 -135 -17 -135 -10 0
-65 -7 -123 -14 -406 -54 -780 -206 -1122 -456 -131 -95 -391 -354 -489 -485
-253 -341 -409 -724 -464 -1139 -20 -154 -20 -459 0 -613 106 -807 600 -1495
1330 -1853 239 -117 461 -187 725 -227 160 -24 511 -24 670 0 439 68 830 237
1170 508 47 37 97 80 112 96 l27 28 -137 146 -137 147 -70 -59 c-303 -256
-644 -408 -1038 -465 -142 -20 -463 -15 -592 9 -443 84 -818 283 -1112 591
-289 302 -468 661 -539 1081 -21 122 -24 450 -5 570 94 601 406 1091 899 1413
239 157 573 277 850 308 l62 7 0 -171 0 -171 27 -20 c17 -14 33 -19 47 -15 37
12 746 495 762 519 13 20 14 28 2 50 -16 30 -749 525 -778 525 -11 0 -29 -9
-40 -20z"/>
<path d="M3448 4432 c-43 -98 -78 -181 -78 -185 0 -4 45 -29 100 -57 55 -28
132 -71 171 -96 39 -25 72 -44 73 -42 1 2 51 72 110 156 59 84 109 159 112
166 4 9 -27 34 -88 72 -101 63 -294 164 -312 164 -6 0 -46 -80 -88 -178z"/>
<path d="M4185 3910 c-77 -71 -141 -133 -143 -138 -1 -5 25 -43 59 -83 34 -41
87 -111 117 -156 l54 -82 157 96 c86 53 164 101 173 108 16 11 12 20 -47 106
-68 101 -211 279 -223 279 -4 -1 -70 -59 -147 -130z"/>
<path d="M1975 3284 c-139 -28 -179 -42 -268 -97 -80 -49 -91 -105 -37 -191
36 -59 79 -61 181 -9 62 31 84 37 153 41 70 3 87 0 126 -20 80 -41 112 -125
90 -237 -25 -132 -104 -237 -386 -516 -123 -121 -227 -233 -233 -248 -24 -62
-5 -139 40 -162 42 -22 816 -22 859 0 58 30 68 162 16 213 l-26 27 -226 3
-226 3 119 122 c200 205 295 343 337 491 20 69 23 203 6 267 -43 160 -172 279
-334 308 -58 11 -150 13 -191 5z"/>
<path d="M3072 3257 c-12 -7 -157 -206 -322 -441 l-300 -429 0 -64 c0 -129 10
-133 349 -133 l259 0 4 -151 3 -151 33 -29 c30 -27 39 -29 108 -29 70 0 78 2
105 29 l29 29 0 150 0 150 65 4 c54 3 70 9 91 30 51 51 41 174 -16 203 -16 8
-54 15 -85 15 l-55 0 0 381 c0 253 -4 387 -11 401 -6 11 -26 26 -44 34 -42 17
-182 18 -213 1z m-12 -617 l0 -200 -135 0 c-74 0 -135 3 -135 6 0 7 262 394
267 394 1 0 3 -90 3 -200z"/>
<path d="M4646 3134 c-98 -35 -181 -66 -184 -69 -3 -2 9 -53 26 -112 17 -59
36 -140 43 -180 7 -39 15 -76 18 -81 4 -7 77 -1 201 16 107 14 197 27 198 28
5 3 -36 218 -54 284 -28 100 -56 180 -62 179 -4 -1 -88 -30 -186 -65z"/>
<path d="M4560 2243 c-1 -33 -33 -224 -49 -293 -11 -47 -19 -86 -18 -87 2 -1
89 -26 195 -56 l192 -54 15 51 c22 77 55 261 62 343 7 86 25 77 -197 93 -183
12 -200 12 -200 3z"/>
<path d="M4276 1376 c-30 -50 -79 -124 -110 -165 l-55 -74 156 -129 c123 -102
159 -127 168 -116 96 123 262 375 252 384 -1 1 -82 45 -179 97 l-177 95 -55
-92z"/>
</g>
</svg>
